
<svg version="1.2" baseProfile="tiny" xmlns="http://www.w3.org/2000/svg" xmlns:xlink="http://www.w3.org/1999/xlink" x="0px" y="0px" viewBox="0 0 179 34" overflow="visible" xml:space="preserve">
<g>
	<path fill="#161616" d="M21.1,20.8c0,1.2-0.2,2.3-0.6,3.3c-0.4,1-1,1.8-1.7,2.5c-0.7,0.7-1.5,1.2-2.5,1.6c-0.9,0.4-1.9,0.5-2.9,0.5   s-2-0.2-2.9-0.5c-0.9-0.4-1.8-0.9-2.5-1.6c-0.7-0.7-1.3-1.5-1.7-2.5c-0.4-1-0.6-2.1-0.6-3.3V0H0v20.9c0,2.6,0.6,4.9,1.7,6.9   c1.1,2,2.7,3.5,4.7,4.5c2,1.1,4.3,1.6,7,1.6c2.6,0,5-0.5,7-1.6c2-1.1,3.6-2.6,4.7-4.5c1.1-2,1.7-4.2,1.7-6.9V0h-5.6V20.8z"/>
	<path fill="#161616" d="M40,0L29.5,33.3h5.7l2.3-7.2h13.1l2.3,7.2h5.7L48.1,0H40L40,0z M39.1,20.9L44,5.4l4.9,15.5H39.1z"/>
	<path fill="#0060AB" d="M89.2,0h-6.8l-7.8,16.6L66.8,0h-6.8l7.8,16.6l-7.8,16.6h6.8l7.8-16.6l7.8,16.6h6.8l-7.8-16.6L89.2,0z"/>
	<path fill-rule="evenodd" fill="#161616" d="M109.4,16.7h1.2v1.1h-1.2V16.7z M99.2,23.8c-0.5,0-1-0.1-1.4-0.3h0   c-0.4-0.2-0.7-0.5-1-0.9c-0.2-0.4-0.4-0.9-0.4-1.4v-4.3h1.2v4.3c0,0.3,0,0.5,0.1,0.7c0.1,0.2,0.2,0.4,0.4,0.5   c0.1,0.1,0.3,0.2,0.5,0.3c0.2,0.1,0.4,0.1,0.6,0.1s0.4,0,0.6-0.1c0.2-0.1,0.4-0.2,0.5-0.3c0.2-0.1,0.3-0.3,0.4-0.5   c0.1-0.2,0.1-0.4,0.1-0.7v-4.3h1.2v4.3c0,0.5-0.1,1-0.4,1.4c-0.2,0.4-0.6,0.7-1,0.9C100.3,23.7,99.8,23.8,99.2,23.8z M106.7,20.1   c-0.1-0.2-0.2-0.3-0.4-0.5l0,0c-0.2-0.1-0.4-0.2-0.7-0.2c-0.1,0-0.3,0-0.4,0.1c-0.1,0-0.3,0.1-0.4,0.2c-0.1,0.1-0.2,0.3-0.3,0.5   c-0.1,0.2-0.1,0.5-0.1,0.8v2.7h-1.2v-5.2h1v0.6c0.1-0.2,0.3-0.3,0.5-0.4c0.3-0.2,0.7-0.3,1.2-0.3c0.4,0,0.7,0.1,0.9,0.2   c0.2,0.1,0.4,0.3,0.6,0.5c0.1,0.2,0.3,0.4,0.3,0.6c0.1,0.2,0.1,0.4,0.1,0.6c0,0.2,0,0.4,0,0.5v2.9h-1.2v-2.5c0-0.2,0-0.3,0-0.5   C106.9,20.4,106.8,20.3,106.7,20.1z M110.6,18.5h-1.2v5.2h1.2V18.5z M115.3,18.5l-1.3,3.8l-1.3-3.8h-1.2l1.9,5.2h1.2l1.9-5.2H115.3   z M120.6,22l1.1,0.3l0,0c-0.2,0.5-0.5,0.8-0.9,1.1c-0.4,0.3-0.8,0.4-1.4,0.4c-0.5,0-1-0.1-1.4-0.3c-0.4-0.2-0.7-0.5-0.9-0.9   c-0.2-0.4-0.3-0.9-0.3-1.4c0-0.6,0.1-1.1,0.3-1.5c0.2-0.4,0.5-0.7,0.9-1c0.4-0.2,0.8-0.3,1.3-0.3c0.5,0,1,0.1,1.4,0.4   c0.4,0.3,0.7,0.6,0.8,1.1c0.2,0.5,0.3,1,0.2,1.6h-3.7c0,0.4,0.1,0.7,0.3,0.9c0.2,0.3,0.6,0.4,1,0.4c0.3,0,0.5-0.1,0.7-0.2   C120.3,22.4,120.5,22.2,120.6,22z M120.4,19.8c-0.2-0.3-0.5-0.4-0.9-0.4c-0.5,0-0.8,0.1-1.1,0.4c-0.1,0.2-0.2,0.4-0.3,0.7h2.5   C120.6,20.2,120.5,19.9,120.4,19.8z M125.3,18.5c-0.2,0-0.3,0-0.5,0.1c-0.2,0-0.3,0.1-0.4,0.2c-0.2,0.1-0.3,0.2-0.4,0.4   c0,0.1-0.1,0.1-0.1,0.2v-0.8h-1v5.2h1.2V21c0-0.2,0-0.4,0.1-0.6c0-0.2,0.1-0.3,0.2-0.5c0.1-0.1,0.2-0.2,0.4-0.3   c0.2-0.1,0.3-0.2,0.5-0.2c0.2,0,0.4,0,0.5,0v-1.1C125.6,18.5,125.5,18.5,125.3,18.5L125.3,18.5z M128.6,22.8c0.3,0,0.5-0.1,0.6-0.2   c0.2-0.1,0.2-0.3,0.2-0.5c0-0.1,0-0.2-0.1-0.3c-0.1-0.1-0.2-0.1-0.4-0.2c-0.2-0.1-0.5-0.2-0.9-0.3c-0.4-0.1-0.8-0.2-1-0.4   c-0.3-0.1-0.4-0.3-0.6-0.5c-0.1-0.2-0.2-0.4-0.2-0.7c0-0.3,0.1-0.6,0.3-0.8c0.2-0.2,0.4-0.4,0.7-0.6c0.3-0.1,0.7-0.2,1.1-0.2   c0.4,0,0.8,0.1,1.1,0.2c0.3,0.1,0.6,0.3,0.8,0.5c0.2,0.2,0.3,0.5,0.4,0.8l-1.2,0.2c0-0.2-0.1-0.4-0.3-0.5c-0.2-0.1-0.4-0.2-0.7-0.2   c-0.3,0-0.5,0-0.7,0.1c-0.2,0.1-0.2,0.2-0.2,0.4c0,0.1,0,0.2,0.1,0.3c0.1,0.1,0.2,0.1,0.4,0.2c0.2,0.1,0.5,0.2,0.9,0.3   c0.4,0.1,0.7,0.2,1,0.4c0.2,0.1,0.4,0.3,0.5,0.5s0.2,0.4,0.2,0.7c0,0.5-0.2,0.9-0.6,1.2c-0.4,0.3-0.9,0.4-1.6,0.4   c-0.6,0-1.2-0.1-1.6-0.4c-0.4-0.3-0.6-0.7-0.7-1.2l1.2-0.2c0.1,0.3,0.2,0.5,0.4,0.6C128,22.7,128.3,22.8,128.6,22.8z M132.9,18.5   h-1.2v5.2h1.2V18.5z M131.8,16.7h1.2v1.1h-1.2V16.7z M135.2,23.5c0.4,0.2,0.8,0.4,1.2,0.4c0.5,0,0.9-0.1,1.3-0.4   c0.1-0.1,0.1-0.1,0.2-0.2v0.4h1v-6.9h-1.2v2c0,0,0,0,0,0l0,0l0,0c0,0,0,0,0,0c-0.3-0.2-0.7-0.4-1.2-0.4c-0.5,0-0.9,0.1-1.3,0.4   c-0.4,0.2-0.6,0.6-0.8,1c-0.2,0.4-0.3,0.9-0.3,1.4c0,0.5,0.1,1,0.3,1.4C134.6,22.9,134.9,23.2,135.2,23.5z M135.5,20.2   c0.1-0.3,0.2-0.5,0.4-0.6c0.2-0.2,0.5-0.2,0.8-0.2c0.3,0,0.5,0.1,0.7,0.2c0.2,0.1,0.3,0.3,0.4,0.6c0.1,0.3,0.1,0.6,0.1,0.9   c0,0.3,0,0.6-0.1,0.9c-0.1,0.3-0.2,0.5-0.4,0.6c-0.2,0.1-0.4,0.2-0.7,0.2c-0.3,0-0.5-0.1-0.7-0.2c-0.2-0.2-0.3-0.4-0.4-0.6   c-0.1-0.3-0.1-0.5-0.1-0.9C135.3,20.8,135.4,20.5,135.5,20.2L135.5,20.2z M143.5,23.7V23h0c-0.2,0.3-0.4,0.4-0.6,0.6   c-0.3,0.2-0.7,0.3-1.2,0.3c-0.4,0-0.7-0.1-0.9-0.2c-0.3-0.1-0.5-0.3-0.6-0.6c-0.1-0.2-0.2-0.5-0.2-0.8c0-0.2,0-0.5,0.1-0.7   c0.1-0.2,0.2-0.4,0.4-0.5c0.2-0.1,0.4-0.3,0.7-0.4c0.2-0.1,0.4-0.1,0.7-0.2c0.3-0.1,0.6-0.1,0.9-0.2l0.2,0c0.1,0,0.3,0,0.4-0.1   c0-0.3-0.1-0.5-0.2-0.6c-0.2-0.2-0.4-0.3-0.8-0.3c-0.2,0-0.5,0.1-0.7,0.2c-0.2,0.1-0.4,0.3-0.5,0.6l-1.1-0.3   c0.1-0.4,0.4-0.8,0.7-1.1c0.4-0.3,0.8-0.4,1.5-0.4c0.5,0,0.9,0.1,1.2,0.2c0.3,0.2,0.6,0.4,0.8,0.7c0.1,0.2,0.1,0.4,0.2,0.6   c0,0.2,0,0.4,0,0.6v3.2H143.5z M142.6,22.8c0.2-0.1,0.3-0.2,0.4-0.3v0c0.1-0.1,0.2-0.3,0.2-0.4c0.1-0.1,0.1-0.3,0.1-0.5   c0-0.1,0-0.2,0-0.3c-0.1,0-0.1,0-0.2,0c-0.1,0-0.2,0-0.3,0.1c-0.2,0-0.5,0.1-0.6,0.1c-0.2,0-0.3,0.1-0.5,0.1   c-0.1,0-0.2,0.1-0.3,0.2c-0.1,0.1-0.2,0.1-0.2,0.2c0,0.1-0.1,0.2-0.1,0.3c0,0.1,0,0.2,0.1,0.3c0.1,0.1,0.2,0.2,0.3,0.2   c0.1,0.1,0.3,0.1,0.5,0.1C142.2,22.9,142.4,22.9,142.6,22.8z M149.3,23.7h1v-6.9h-1.2v2c0,0,0,0,0,0v0h0c0,0,0,0,0,0   c-0.3-0.2-0.7-0.4-1.2-0.4s-0.9,0.1-1.3,0.4c-0.4,0.2-0.6,0.6-0.8,1c-0.2,0.4-0.3,0.9-0.3,1.4c0,0.5,0.1,1,0.3,1.4   c0.2,0.4,0.5,0.7,0.8,1c0.4,0.2,0.8,0.4,1.2,0.4c0.5,0,0.9-0.1,1.3-0.4c0.1-0.1,0.1-0.1,0.2-0.2V23.7z M149.2,22   c-0.1,0.3-0.2,0.5-0.4,0.6c-0.2,0.1-0.4,0.2-0.8,0.2c-0.3,0-0.5-0.1-0.7-0.2c-0.2-0.2-0.3-0.4-0.4-0.6c-0.1-0.3-0.1-0.5-0.1-0.9   c0-0.3,0-0.6,0.1-0.9c0.1-0.3,0.2-0.5,0.4-0.6c0.2-0.2,0.5-0.2,0.8-0.2c0.3,0,0.5,0.1,0.7,0.2c0.2,0.1,0.3,0.3,0.4,0.6   c0.1,0.3,0.1,0.6,0.1,0.9C149.3,21.4,149.3,21.7,149.2,22L149.2,22z M96.1,33.3l2.2-6.9h1.7l2.2,6.9h-1.2l-0.5-1.5h-2.7l-0.5,1.5   H96.1z M99.1,27.5l-1,3.2h2L99.1,27.5z M104.5,26.2h-1.2v7h1.2V26.2z M107.2,26.3c0.2-0.1,0.3-0.1,0.5-0.1l0,0c0.2,0,0.3,0,0.4,0   h0.6v0.9h-0.6c-0.2,0-0.4,0.1-0.5,0.2c-0.1,0.1-0.2,0.3-0.2,0.4v0.3h1.2V29h-1.2v4.3h-1.2V29h-0.8v-0.9h0.8V28c0-0.1,0-0.3,0-0.4   c0-0.2,0-0.3,0.1-0.5c0-0.2,0.1-0.3,0.2-0.4C106.9,26.5,107,26.4,107.2,26.3z M113,28.3c-0.4-0.2-0.8-0.3-1.4-0.3   c-0.5,0-1,0.1-1.3,0.3c-0.4,0.2-0.7,0.5-0.9,1c-0.2,0.4-0.3,0.9-0.3,1.4c0,0.5,0.1,1,0.3,1.4s0.5,0.7,0.9,1   c0.4,0.2,0.8,0.3,1.4,0.3c0.5,0,1-0.1,1.4-0.3s0.7-0.6,0.9-1c0.2-0.4,0.3-0.9,0.3-1.4c0-0.5-0.1-1-0.3-1.4   C113.7,28.8,113.4,28.5,113,28.3z M112.7,31.9c-0.2,0.3-0.6,0.5-1,0.5c-0.5,0-0.8-0.1-1-0.4c-0.2-0.3-0.3-0.7-0.3-1.2   c0-0.3,0-0.6,0.1-0.9c0.1-0.2,0.2-0.4,0.4-0.6c0.2-0.1,0.5-0.2,0.8-0.2c0.5,0,0.8,0.1,1,0.4c0.2,0.3,0.3,0.7,0.3,1.2   C113,31.2,112.9,31.6,112.7,31.9L112.7,31.9z M119.5,28.6c0.1,0.2,0.3,0.4,0.3,0.6l0,0c0.1,0.2,0.1,0.4,0.1,0.6c0,0.2,0,0.4,0,0.5   v2.9h-1.2v-2.5c0-0.2,0-0.3,0-0.5c0-0.2-0.1-0.4-0.2-0.6c-0.1-0.2-0.2-0.3-0.4-0.5c-0.2-0.1-0.4-0.2-0.7-0.2c-0.1,0-0.3,0-0.4,0.1   c-0.1,0-0.3,0.1-0.4,0.2c-0.1,0.1-0.2,0.3-0.3,0.5c-0.1,0.2-0.1,0.5-0.1,0.8v2.7h-1.2v-5.2h1v0.6c0.1-0.2,0.3-0.3,0.5-0.4   c0.3-0.2,0.7-0.3,1.2-0.3c0.4,0,0.7,0.1,0.9,0.2S119.4,28.4,119.5,28.6z M124.7,30.6c-0.2-0.1-0.6-0.3-1-0.4   c-0.4-0.1-0.7-0.2-0.9-0.3c-0.2-0.1-0.3-0.1-0.4-0.2c-0.1-0.1-0.1-0.2-0.1-0.3c0-0.2,0.1-0.3,0.2-0.4c0.2-0.1,0.4-0.1,0.7-0.1   c0.3,0,0.5,0.1,0.7,0.2s0.3,0.3,0.3,0.5l1.2-0.2c0-0.3-0.2-0.6-0.4-0.8c-0.2-0.2-0.4-0.4-0.8-0.5c-0.3-0.1-0.7-0.2-1.1-0.2   c-0.4,0-0.8,0.1-1.1,0.2c-0.3,0.1-0.5,0.3-0.7,0.6c-0.2,0.2-0.3,0.5-0.3,0.8c0,0.3,0.1,0.5,0.2,0.7s0.3,0.3,0.6,0.5   c0.3,0.1,0.6,0.3,1,0.4c0.4,0.1,0.7,0.2,0.9,0.3c0.2,0.1,0.3,0.1,0.4,0.2c0.1,0.1,0.1,0.2,0.1,0.3c0,0.2-0.1,0.3-0.2,0.5   c-0.2,0.1-0.4,0.2-0.6,0.2c-0.3,0-0.6-0.1-0.8-0.2c-0.2-0.1-0.3-0.3-0.4-0.6l-1.2,0.2c0.1,0.5,0.3,0.9,0.7,1.2   c0.4,0.3,0.9,0.4,1.6,0.4c0.6,0,1.2-0.1,1.6-0.4c0.4-0.3,0.6-0.7,0.6-1.2c0-0.3-0.1-0.5-0.2-0.7C125.1,30.9,124.9,30.7,124.7,30.6z    M128.7,27.9c0.5,0,1,0.1,1.4,0.3c0.4,0.2,0.7,0.6,0.9,1c0.2,0.4,0.3,0.9,0.3,1.4c0,0.5-0.1,1-0.3,1.4c-0.2,0.4-0.5,0.7-0.9,1   s-0.8,0.3-1.4,0.3c-0.5,0-1-0.1-1.4-0.3c-0.4-0.2-0.7-0.6-0.9-1s-0.3-0.9-0.3-1.4c0-0.5,0.1-1,0.3-1.4c0.2-0.4,0.5-0.7,0.9-1   C127.8,28.1,128.2,27.9,128.7,27.9z M128.7,32.3c0.5,0,0.8-0.2,1-0.5l0,0c0.2-0.3,0.3-0.7,0.3-1.2c0-0.5-0.1-0.9-0.3-1.2   c-0.2-0.3-0.6-0.4-1-0.4c-0.3,0-0.6,0.1-0.8,0.2c-0.2,0.1-0.3,0.3-0.4,0.6c-0.1,0.2-0.1,0.5-0.1,0.9c0,0.5,0.1,0.9,0.3,1.2   C128,32.2,128.3,32.3,128.7,32.3z M147,28.3c-0.4-0.3-0.8-0.4-1.4-0.4c-0.5,0-1,0.1-1.3,0.3c-0.4,0.2-0.7,0.6-0.9,1   c-0.2,0.4-0.3,0.9-0.3,1.5c0,0.5,0.1,1,0.3,1.4c0.2,0.4,0.5,0.7,0.9,0.9c0.4,0.2,0.9,0.3,1.4,0.3s1-0.1,1.4-0.4   c0.4-0.3,0.7-0.6,0.9-1.1l-1.1-0.3c-0.1,0.2-0.3,0.4-0.5,0.5c-0.2,0.1-0.5,0.2-0.7,0.2c-0.4,0-0.8-0.1-1-0.4   c-0.2-0.2-0.3-0.5-0.3-0.9h3.7c0-0.6,0-1.2-0.2-1.6C147.7,28.9,147.4,28.6,147,28.3L147,28.3z M145.7,29c0.4,0,0.7,0.1,0.9,0.4   c0.1,0.2,0.2,0.4,0.3,0.8h-2.5c0.1-0.3,0.1-0.5,0.3-0.7C144.9,29.1,145.2,29,145.7,29z M149.2,26.2h1.2v7h-1.2V26.2z M158.3,29.9   c-0.2-0.1-0.4-0.2-0.6-0.3c-0.2-0.1-0.4-0.1-0.6-0.2l-1.2-0.3c-0.2,0-0.3-0.1-0.5-0.2c-0.2-0.1-0.3-0.1-0.4-0.3   c-0.1-0.1-0.2-0.2-0.2-0.4c0-0.2,0.1-0.3,0.2-0.5c0.1-0.1,0.3-0.2,0.5-0.3c0.2-0.1,0.4-0.1,0.6-0.1c0.2,0,0.5,0.1,0.7,0.1   c0.2,0.1,0.4,0.2,0.5,0.4c0.1,0.2,0.2,0.4,0.3,0.6l1.2-0.2c-0.1-0.4-0.3-0.8-0.5-1.1c-0.2-0.3-0.6-0.5-0.9-0.7   c-0.4-0.2-0.8-0.2-1.3-0.2c-0.5,0-0.9,0.1-1.3,0.2c-0.4,0.2-0.7,0.4-0.9,0.7c-0.2,0.3-0.3,0.7-0.3,1.1c0,0.3,0,0.6,0.2,0.8   c0.1,0.2,0.2,0.4,0.4,0.5c0.2,0.1,0.3,0.2,0.5,0.3c0.2,0.1,0.3,0.1,0.5,0.2l1.8,0.5c0.1,0,0.2,0.1,0.3,0.1c0.1,0.1,0.2,0.1,0.2,0.2   c0.1,0.1,0.1,0.1,0.1,0.2c0,0.1,0,0.2,0,0.3c0,0.2-0.1,0.4-0.2,0.5s-0.3,0.3-0.5,0.3c-0.2,0.1-0.4,0.1-0.7,0.1   c-0.4,0-0.8-0.1-1.1-0.3c-0.3-0.2-0.5-0.5-0.6-0.9l-1.2,0.2c0.1,0.5,0.2,0.8,0.5,1.2c0.3,0.3,0.6,0.6,1,0.8   c0.4,0.2,0.9,0.3,1.4,0.3c0.4,0,0.7,0,1-0.1c0.3-0.1,0.6-0.2,0.9-0.4c0.3-0.2,0.5-0.4,0.6-0.7c0.1-0.3,0.2-0.6,0.2-0.9   c0-0.4-0.1-0.6-0.2-0.9C158.7,30.2,158.5,30,158.3,29.9L158.3,29.9z M163.3,28.2c0.3,0.2,0.6,0.4,0.8,0.7h0   c0.1,0.2,0.1,0.4,0.2,0.6c0,0.2,0,0.4,0,0.6v3.2h-1v-0.7c-0.2,0.3-0.4,0.4-0.6,0.6c-0.3,0.2-0.7,0.3-1.2,0.3   c-0.4,0-0.7-0.1-0.9-0.2c-0.3-0.1-0.5-0.3-0.6-0.6c-0.1-0.2-0.2-0.5-0.2-0.8c0-0.2,0-0.5,0.1-0.7c0.1-0.2,0.2-0.4,0.4-0.5   c0.2-0.1,0.4-0.3,0.7-0.4c0.2-0.1,0.4-0.1,0.7-0.2c0.3-0.1,0.6-0.1,0.9-0.2l0.2,0c0.1,0,0.3,0,0.4-0.1c0-0.3-0.1-0.5-0.2-0.6   c-0.2-0.2-0.4-0.3-0.8-0.3c-0.2,0-0.5,0.1-0.7,0.2c-0.2,0.1-0.4,0.3-0.5,0.6l-1.1-0.3c0.1-0.4,0.4-0.8,0.7-1.1   c0.4-0.3,0.8-0.4,1.5-0.4C162.6,27.9,163,28,163.3,28.2z M162.8,32c0.1-0.1,0.2-0.3,0.2-0.4v0c0.1-0.1,0.1-0.3,0.1-0.5   c0-0.1,0-0.2,0-0.3c-0.1,0-0.1,0-0.2,0l0,0c-0.1,0-0.2,0-0.3,0.1c-0.3,0-0.5,0.1-0.6,0.1c-0.2,0-0.3,0.1-0.5,0.1   c-0.1,0-0.2,0.1-0.3,0.2c-0.1,0.1-0.2,0.1-0.2,0.2c0,0.1-0.1,0.2-0.1,0.3c0,0.1,0,0.2,0.1,0.3c0.1,0.1,0.2,0.2,0.3,0.2   c0.1,0.1,0.3,0.1,0.5,0.1c0.3,0,0.5,0,0.7-0.1C162.5,32.3,162.7,32.1,162.8,32z M169.2,28.3c-0.4-0.2-0.8-0.4-1.3-0.4   c-0.5,0-0.9,0.1-1.2,0.4c0,0,0,0,0,0c0,0,0,0,0,0v-2h-1.2v6.9h1v-0.4c0.1,0.1,0.1,0.1,0.2,0.2c0.3,0.2,0.8,0.4,1.3,0.4   c0.5,0,0.9-0.1,1.2-0.4c0.4-0.2,0.6-0.6,0.8-1c0.2-0.4,0.3-0.9,0.3-1.4c0-0.5-0.1-1-0.3-1.4C169.9,28.9,169.6,28.5,169.2,28.3z    M169,31.5c-0.1,0.3-0.2,0.5-0.4,0.6c-0.2,0.2-0.4,0.2-0.7,0.2s-0.6-0.1-0.7-0.2c-0.2-0.1-0.3-0.3-0.4-0.6   c-0.1-0.3-0.1-0.6-0.1-0.9c0-0.3,0-0.6,0.1-0.9c0.1-0.3,0.2-0.5,0.4-0.6c0.2-0.1,0.4-0.2,0.7-0.2c0.3,0,0.6,0.1,0.8,0.2   c0.2,0.2,0.3,0.4,0.4,0.6c0.1,0.3,0.1,0.5,0.1,0.9C169.1,31,169.1,31.3,169,31.5L169,31.5z M171.5,26.2h1.2v1.1h-1.2V26.2z    M172.7,28.1h-1.2v5.2h1.2V28.1z M177.7,28.3c0.4,0.2,0.7,0.6,0.9,1c0.2,0.4,0.3,0.9,0.3,1.4c0,0.5-0.1,1-0.3,1.4   c-0.2,0.4-0.5,0.7-0.9,1c-0.4,0.2-0.8,0.3-1.4,0.3c-0.5,0-1-0.1-1.4-0.3c-0.4-0.2-0.7-0.6-0.9-1c-0.2-0.4-0.3-0.9-0.3-1.4   c0-0.5,0.1-1,0.3-1.4c0.2-0.4,0.5-0.7,0.9-1c0.4-0.2,0.8-0.3,1.3-0.3C176.9,27.9,177.4,28.1,177.7,28.3z M176.4,32.3   c0.5,0,0.8-0.2,1-0.5l0,0c0.2-0.3,0.3-0.7,0.3-1.2c0-0.5-0.1-0.9-0.3-1.2c-0.2-0.3-0.6-0.4-1-0.4c-0.3,0-0.6,0.1-0.8,0.2   c-0.2,0.1-0.3,0.3-0.4,0.6c-0.1,0.2-0.1,0.5-0.1,0.9c0,0.5,0.1,0.9,0.3,1.2C175.6,32.2,175.9,32.3,176.4,32.3z M134.2,33.3l1.6-3.5   l-1.6-3.5h1.4l1.6,3.5l-1.6,3.5H134.2z M138.6,29.8l1.6,3.5h-1.4l-1.6-3.5l1.6-3.5h1.4L138.6,29.8z"/>
</g>
</svg>